<svg width="128" height="129" viewBox="0 0 128 129" fill="none" xmlns="http://www.w3.org/2000/svg">
<path d="M17.5269 90.9408C17.5269 95.773 13.6034 99.6902 8.76347 99.6902C3.92354 99.6902 0 95.773 0 90.9408C0 86.1087 3.92354 82.1914 8.76347 82.1914C13.6034 82.1914 17.5269 86.1087 17.5269 90.9408Z" fill="white"/>
<path d="M119.237 59.8408C119.237 64.673 115.313 68.5902 110.473 68.5902C105.633 68.5902 101.71 64.673 101.71 59.8408C101.71 55.0087 105.633 51.0914 110.473 51.0914C115.313 51.0914 119.237 55.0087 119.237 59.8408Z" fill="white"/>
<path d="M72.7634 90.9408C72.7634 95.773 68.8399 99.6902 63.9999 99.6902C59.16 99.6902 55.2365 95.773 55.2365 90.9408C55.2365 86.1087 59.16 82.1914 63.9999 82.1914C68.8399 82.1914 72.7634 86.1087 72.7634 90.9408Z" fill="white"/>
<path d="M128 90.9408C128 95.773 124.076 99.6902 119.237 99.6902C114.397 99.6902 110.473 95.773 110.473 90.9408C110.473 86.1087 114.397 82.1914 119.237 82.1914C124.076 82.1914 128 86.1087 128 90.9408Z" fill="white"/>
<path fill-rule="evenodd" clip-rule="evenodd" d="M119.237 93.0082L8.76347 93.0082V88.8735L119.237 88.8735V93.0082Z" fill="white"/>
<path fill-rule="evenodd" clip-rule="evenodd" d="M107.468 62.231C107.468 62.231 107.467 62.231 107.546 60.1583C107.625 58.0856 107.624 58.0856 107.624 58.0856L107.621 58.0855L107.615 58.0853L107.598 58.0847C107.584 58.0843 107.565 58.0838 107.541 58.0832C107.493 58.0821 107.426 58.0808 107.342 58.0798C107.172 58.078 106.931 58.0777 106.629 58.0833C106.025 58.0945 105.171 58.1294 104.15 58.2232C102.12 58.4099 99.373 58.835 96.5939 59.8046C93.8227 60.7715 90.9042 62.3202 88.6658 64.8267C86.3883 67.3768 84.9245 70.7993 84.9245 75.2584C84.9245 78.7225 83.8186 81.1487 82.2415 82.9146C80.6254 84.7242 78.4045 85.959 76.0363 86.7853C73.676 87.6088 71.2837 87.9864 69.4592 88.1542C68.5526 88.2375 67.8003 88.2679 67.2804 88.2775C67.0208 88.2823 66.8201 88.282 66.6883 88.2805C66.6224 88.2798 66.5737 88.2788 66.5436 88.2781L66.5125 88.2773L66.5088 88.2772C66.5088 88.2772 66.5101 88.2772 66.4309 90.3499C66.3517 92.4226 66.3526 92.4226 66.3535 92.4226L66.3617 92.4229L66.3791 92.4235C66.3933 92.4239 66.4123 92.4244 66.4362 92.425C66.4838 92.4262 66.5506 92.4275 66.6353 92.4284C66.8046 92.4302 67.0455 92.4305 67.3481 92.4249C67.9525 92.4137 68.8062 92.3789 69.8269 92.285C71.8569 92.0983 74.604 91.6732 77.3831 90.7036C80.1543 89.7367 83.0728 88.188 85.3113 85.6815C87.5887 83.1314 89.0525 79.7089 89.0525 75.2498C89.0525 71.7857 90.1584 69.3595 91.7355 67.5936C93.3516 65.784 95.5725 64.5492 97.9407 63.7229C100.301 62.8994 102.693 62.5218 104.518 62.354C105.424 62.2707 106.177 62.2403 106.697 62.2307C106.956 62.2259 107.157 62.2263 107.289 62.2277C107.355 62.2284 107.403 62.2294 107.433 62.2301L107.465 62.2309L107.468 62.231Z" fill="white"/>
<path fill-rule="evenodd" clip-rule="evenodd" d="M32.8343 43.8348C31.4532 42.1837 29.0233 41.8537 27.3446 43.2023C16.9676 51.5389 9.89414 63.0492 8.07289 76.0053C7.95992 76.809 8.58675 77.5173 9.39947 77.5317C9.98644 77.5421 10.5141 77.1804 10.7305 76.6356C14.8054 66.3751 22.632 57.7292 32.7165 52.0477C35.1187 50.6943 35.8806 47.4768 34.1126 45.3631L32.8343 43.8348Z" fill="white"/>
<path fill-rule="evenodd" clip-rule="evenodd" d="M40.7439 45.5484C41.8338 46.8514 43.6069 47.343 45.2455 46.89C50.1784 45.5261 55.416 44.7923 60.8433 44.7923C62.868 44.7923 64.5774 43.1997 64.5774 41.1783V33.8205C64.5774 31.4646 62.6059 29.5723 60.26 29.8273C52.6065 30.6592 45.3983 32.7683 38.9149 35.9067C36.6118 37.0216 36.0971 39.993 37.7377 41.9544L40.7439 45.5484Z" fill="white"/>
<path fill-rule="evenodd" clip-rule="evenodd" d="M91.5954 49.7718C90.2897 51.2265 88.1496 51.5552 86.3969 50.687C82.2553 48.6353 77.7787 47.0669 73.06 46.0657C71.0531 45.6398 69.5465 43.9163 69.5465 41.8678V33.7069C69.5465 31.3785 71.4738 29.4963 73.7964 29.7061C82.2233 30.4672 90.1346 32.7736 97.164 36.3007C99.4793 37.4623 99.9256 40.491 98.1963 42.4176L91.5954 49.7718Z" fill="white"/>
</svg>
