<svg width="128" height="129" viewBox="0 0 128 129" fill="none" xmlns="http://www.w3.org/2000/svg">
<path d="M17.5269 90.9408C17.5269 95.773 13.6034 99.6902 8.76347 99.6902C3.92354 99.6902 0 95.773 0 90.9408C0 86.1086 3.92354 82.1914 8.76347 82.1914C13.6034 82.1914 17.5269 86.1086 17.5269 90.9408Z" fill="white"/>
<path d="M72.7634 90.9408C72.7634 95.773 68.8399 99.6902 63.9999 99.6902C59.16 99.6902 55.2365 95.773 55.2365 90.9408C55.2365 86.1086 59.16 82.1914 63.9999 82.1914C68.8399 82.1914 72.7634 86.1086 72.7634 90.9408Z" fill="white"/>
<path d="M128 90.9408C128 95.773 124.076 99.6902 119.237 99.6902C114.397 99.6902 110.473 95.773 110.473 90.9408C110.473 86.1086 114.397 82.1914 119.237 82.1914C124.076 82.1914 128 86.1086 128 90.9408Z" fill="white"/>
<path fill-rule="evenodd" clip-rule="evenodd" d="M119.237 93.0082L8.76347 93.0082V88.8734L119.237 88.8734V93.0082Z" fill="white"/>
</svg>
