<svg width="128" height="129" viewBox="0 0 128 129" fill="none" xmlns="http://www.w3.org/2000/svg">
<path d="M17.5269 90.9408C17.5269 95.773 13.6034 99.6902 8.76347 99.6902C3.92354 99.6902 0 95.773 0 90.9408C0 86.1086 3.92354 82.1914 8.76347 82.1914C13.6034 82.1914 17.5269 86.1086 17.5269 90.9408Z" fill="white"/>
<path d="M58.0765 40.8583C58.0765 45.6904 54.1529 49.6077 49.313 49.6077C44.4731 49.6077 40.5495 45.6904 40.5495 40.8583C40.5495 36.0261 44.4731 32.1088 49.313 32.1088C54.1529 32.1088 58.0765 36.0261 58.0765 40.8583Z" fill="white"/>
<path d="M72.7634 90.9408C72.7634 95.7729 68.8399 99.6902 63.9999 99.6902C59.16 99.6902 55.2365 95.7729 55.2365 90.9408C55.2365 86.1086 59.16 82.1914 63.9999 82.1914C68.8399 82.1914 72.7634 86.1086 72.7634 90.9408Z" fill="white"/>
<path d="M128 90.9408C128 95.7729 124.076 99.6902 119.237 99.6902C114.397 99.6902 110.473 95.7729 110.473 90.9408C110.473 86.1086 114.397 82.1914 119.237 82.1914C124.076 82.1914 128 86.1086 128 90.9408Z" fill="white"/>
<path fill-rule="evenodd" clip-rule="evenodd" d="M119.237 93.0082L8.76347 93.0082V88.8734L119.237 88.8734V93.0082Z" fill="white"/>
<path fill-rule="evenodd" clip-rule="evenodd" d="M32.8344 43.8348C31.4533 42.1837 29.0234 41.8537 27.3447 43.2023C16.9677 51.5389 9.89426 63.0492 8.07301 76.0053C7.96004 76.809 8.58687 77.5173 9.39959 77.5317C9.98656 77.5421 10.5142 77.1804 10.7306 76.6356C14.8055 66.3751 22.6322 57.7292 32.7166 52.0477C35.1188 50.6943 35.8807 47.4768 34.1127 45.3631L32.8344 43.8348Z" fill="white"/>
<path fill-rule="evenodd" clip-rule="evenodd" d="M50.6043 46.9904C50.6043 46.9904 50.6038 46.9916 48.7283 46.1057C46.8528 45.2198 46.852 45.2215 46.852 45.2215L46.8511 45.2235L46.8486 45.2289L46.8412 45.2447C46.8353 45.2576 46.8273 45.2749 46.8174 45.2966C46.7977 45.34 46.7703 45.4009 46.7362 45.4784C46.6681 45.6334 46.5733 45.855 46.4598 46.1354C46.2331 46.6958 45.9302 47.4947 45.6162 48.4705C44.9916 50.411 44.305 53.1047 44.1068 56.0414C43.9092 58.9698 44.1889 62.2619 45.6164 65.3041C47.0688 68.3994 49.6428 71.0883 53.7445 72.8375C56.931 74.1963 58.7289 76.1653 59.7347 78.3087C60.7653 80.5051 61.03 83.0324 60.8611 85.5349C60.6927 88.0291 60.1017 90.3777 59.5403 92.1219C59.2614 92.9884 58.9941 93.6924 58.7991 94.1744C58.7017 94.415 58.6226 94.5995 58.5696 94.7203C58.5431 94.7806 58.5231 94.825 58.5106 94.8524L58.4977 94.8807L58.4961 94.884C58.4961 94.884 58.4967 94.8828 60.3722 95.7687C62.2476 96.6546 62.2484 96.653 62.2484 96.653L62.2519 96.6456L62.2592 96.6297C62.2652 96.6169 62.2731 96.5996 62.283 96.5779C62.3028 96.5345 62.3302 96.4735 62.3642 96.396C62.4323 96.241 62.5271 96.0195 62.6406 95.739C62.8674 95.1786 63.1702 94.3797 63.4843 93.404C64.1089 91.4634 64.7954 88.7697 64.9936 85.833C65.1913 82.9046 64.9115 79.6125 63.484 76.5704C62.0316 73.4751 59.4576 70.7861 55.3559 69.037C52.1694 67.6781 50.3715 65.7091 49.3658 63.5658C48.3351 61.3693 48.0705 58.842 48.2394 56.3396C48.4077 53.8454 48.9988 51.4967 49.5602 49.7526C49.8391 48.886 50.1063 48.182 50.3014 47.7001C50.3988 47.4594 50.4778 47.2749 50.5309 47.1542C50.5574 47.0938 50.5773 47.0495 50.5898 47.0221L50.6028 46.9938L50.6043 46.9904Z" fill="white"/>
</svg>
