<svg width="128" height="129" viewBox="0 0 128 129" fill="none" xmlns="http://www.w3.org/2000/svg">
<path d="M17.5269 90.941C17.5269 95.7731 13.6034 99.6904 8.76347 99.6904C3.92354 99.6904 0 95.7731 0 90.941C0 86.1088 3.92354 82.1915 8.76347 82.1915C13.6034 82.1915 17.5269 86.1088 17.5269 90.941Z" fill="white"/>
<path d="M92.5488 37.9843C92.5488 42.8165 88.6252 46.7337 83.7853 46.7337C78.9454 46.7337 75.0218 42.8165 75.0218 37.9843C75.0218 33.1522 78.9454 29.2349 83.7853 29.2349C88.6252 29.2349 92.5488 33.1522 92.5488 37.9843Z" fill="white"/>
<path d="M72.7634 90.941C72.7634 95.7731 68.8399 99.6903 63.9999 99.6903C59.16 99.6903 55.2365 95.7731 55.2365 90.941C55.2365 86.1088 59.16 82.1915 63.9999 82.1915C68.8399 82.1915 72.7634 86.1088 72.7634 90.941Z" fill="white"/>
<path d="M128 90.941C128 95.7731 124.076 99.6903 119.237 99.6903C114.397 99.6903 110.473 95.7731 110.473 90.941C110.473 86.1088 114.397 82.1915 119.237 82.1915C124.076 82.1915 128 86.1088 128 90.941Z" fill="white"/>
<path fill-rule="evenodd" clip-rule="evenodd" d="M119.237 93.0083L8.76347 93.0083V88.8736L119.237 88.8736V93.0083Z" fill="white"/>
<path fill-rule="evenodd" clip-rule="evenodd" d="M32.8343 43.8348C31.4532 42.1837 29.0233 41.8537 27.3446 43.2023C16.9676 51.5389 9.89414 63.0492 8.07289 76.0053C7.95992 76.809 8.58675 77.5173 9.39947 77.5317C9.98644 77.5421 10.5141 77.1804 10.7305 76.6356C14.8054 66.3751 22.632 57.7292 32.7165 52.0477C35.1187 50.6943 35.8806 47.4768 34.1126 45.3631L32.8343 43.8348Z" fill="white"/>
<path fill-rule="evenodd" clip-rule="evenodd" d="M40.7439 45.5484C41.8338 46.8514 43.6069 47.343 45.2455 46.89C50.1784 45.5261 55.416 44.7923 60.8433 44.7923C62.868 44.7923 64.5774 43.1997 64.5774 41.1783V33.8205C64.5774 31.4646 62.6059 29.5723 60.26 29.8273C52.6065 30.6592 45.3983 32.7683 38.9149 35.9067C36.6118 37.0216 36.0971 39.993 37.7377 41.9544L40.7439 45.5484Z" fill="white"/>
<path fill-rule="evenodd" clip-rule="evenodd" d="M85.0295 44.6371C85.0295 44.6371 85.0284 44.6377 84.1411 42.7629C83.2538 40.888 83.2522 40.8888 83.2522 40.8888L83.2502 40.8898L83.2448 40.8923L83.229 40.8999C83.2163 40.906 83.1992 40.9144 83.1778 40.9249C83.135 40.9459 83.0751 40.9756 82.9996 41.0139C82.8487 41.0904 82.6348 41.2015 82.3691 41.3463C81.8382 41.6354 81.0972 42.0607 80.2352 42.6155C78.5211 43.7189 76.2811 45.365 74.2642 47.5088C72.2531 49.6466 70.3802 52.3684 69.5529 55.6254C68.7111 58.9393 68.994 62.6509 71.054 66.6056C72.6543 69.6779 72.7943 72.3406 72.2114 74.6353C71.6141 76.9869 70.2148 79.108 68.4962 80.9349C66.7833 82.7556 64.836 84.1957 63.2954 85.1874C62.5299 85.6801 61.8766 86.0546 61.42 86.3033C61.192 86.4275 61.0139 86.5199 60.8963 86.5795C60.8375 86.6094 60.7939 86.631 60.7668 86.6442L60.7389 86.6579L60.7356 86.6595C60.7356 86.6595 60.7367 86.6589 61.624 88.5337C62.5113 90.4086 62.5129 90.4078 62.5129 90.4078L62.5203 90.4043L62.536 90.3967C62.5488 90.3905 62.5659 90.3822 62.5873 90.3717C62.6301 90.3507 62.69 90.321 62.7655 90.2827C62.9164 90.2061 63.1303 90.0951 63.396 89.9503C63.9269 89.6612 64.6679 89.2359 65.5299 88.6811C67.244 87.5777 69.484 85.9316 71.5008 83.7878C73.5119 81.65 75.3849 78.9282 76.2122 75.6712C77.054 72.3573 76.7711 68.6457 74.7111 64.691C73.1108 61.6187 72.9708 58.956 73.5537 56.6613C74.151 54.3097 75.5503 52.1886 77.2689 50.3617C78.9818 48.541 80.929 47.1009 82.4697 46.1092C83.2352 45.6165 83.8885 45.242 84.345 44.9933C84.5731 44.8691 84.7512 44.7767 84.8688 44.7171C84.9276 44.6872 84.9712 44.6656 84.9983 44.6524L85.0262 44.6387L85.0295 44.6371Z" fill="white"/>
</svg>
